<svg width="18" height="17" viewBox="0 0 18 17" fill="none" xmlns="http://www.w3.org/2000/svg">
<path d="M4.16673 0.0333328L14.0834 9.95L15.8501 8.18333L17.0251 9.35833L14.9667 11.4167L17.6167 14.0667C17.9417 14.3917 17.9417 14.9167 17.6167 15.2417L17.0251 15.8333C16.7001 16.1583 16.1751 16.1583 15.8501 15.8333L13.1667 13.1917L11.1334 15.25L9.9584 14.075L11.7251 12.3083L1.8084 2.39167V0.0333328H4.16673ZM12.2417 6.33333L16.1917 2.38333V0.0333328H13.8334L9.8834 3.98333L12.2417 6.33333ZM8.11673 10.5L5.7584 8.10833L3.91673 9.95L2.15006 8.18333L0.975065 9.35833L3.0334 11.4167L0.383398 14.075C0.0583984 14.4 0.0583984 14.925 0.383398 15.25L0.975065 15.8417C1.30007 16.1667 1.82507 16.1667 2.15006 15.8417L4.8334 13.1917L6.86673 15.25L8.04173 14.075L6.27506 12.3083L8.11673 10.5Z" fill="white"/>
</svg>
