<svg width="18" height="18" viewBox="0 0 18 18" fill="none" xmlns="http://www.w3.org/2000/svg">
<path d="M10.8253 10.825L4.00033 14L7.17533 7.175L14.0003 4M9.00033 0.666666C7.90598 0.666666 6.82234 0.882214 5.8113 1.301C4.80025 1.71979 3.88159 2.33362 3.10777 3.10744C1.54497 4.67025 0.666992 6.78986 0.666992 9C0.666992 11.2101 1.54497 13.3298 3.10777 14.8926C3.88159 15.6664 4.80025 16.2802 5.8113 16.699C6.82234 17.1178 7.90598 17.3333 9.00033 17.3333C11.2105 17.3333 13.3301 16.4554 14.8929 14.8926C16.4557 13.3298 17.3337 11.2101 17.3337 9C17.3337 7.90565 17.1181 6.82202 16.6993 5.81097C16.2805 4.79992 15.6667 3.88126 14.8929 3.10744C14.1191 2.33362 13.2004 1.71979 12.1894 1.301C11.1783 0.882214 10.0947 0.666666 9.00033 0.666666ZM9.00033 8.08333C8.75721 8.08333 8.52405 8.17991 8.35214 8.35182C8.18024 8.52373 8.08366 8.75688 8.08366 9C8.08366 9.24311 8.18024 9.47627 8.35214 9.64818C8.52405 9.82009 8.75721 9.91667 9.00033 9.91667C9.24344 9.91667 9.4766 9.82009 9.64851 9.64818C9.82042 9.47627 9.91699 9.24311 9.91699 9C9.91699 8.75688 9.82042 8.52373 9.64851 8.35182C9.4766 8.17991 9.24344 8.08333 9.00033 8.08333Z" fill="white"/>
</svg>
