<svg width="24" height="25" viewBox="0 0 24 25" fill="none" xmlns="http://www.w3.org/2000/svg">
<path d="M9.5 3.61279C11.2239 3.61279 12.8772 4.29761 14.0962 5.5166C15.3152 6.73559 16 8.38889 16 10.1128C16 11.7228 15.41 13.2028 14.44 14.3428L14.71 14.6128H15.5L20.5 19.6128L19 21.1128L14 16.1128V15.3228L13.73 15.0528C12.59 16.0228 11.11 16.6128 9.5 16.6128C7.77609 16.6128 6.12279 15.928 4.90381 14.709C3.68482 13.49 3 11.8367 3 10.1128C3 8.38889 3.68482 6.73559 4.90381 5.5166C6.12279 4.29761 7.77609 3.61279 9.5 3.61279ZM9.5 5.61279C7 5.61279 5 7.61279 5 10.1128C5 12.6128 7 14.6128 9.5 14.6128C12 14.6128 14 12.6128 14 10.1128C14 7.61279 12 5.61279 9.5 5.61279Z" fill="#262626"/>
</svg>
