<svg width="17" height="19" viewBox="0 0 17 19" fill="none" xmlns="http://www.w3.org/2000/svg">
<path d="M13.7916 3.40833L11.6833 5.025L12.4416 7.575L10.2499 6.06667L8.05827 7.575L8.8166 5.025L6.70827 3.40833L9.3666 3.33333L10.2499 0.833334L11.1333 3.33333L13.7916 3.40833ZM16.7083 9.16667L15.3416 10.2083L15.8333 11.8583L14.4166 10.8833L12.9999 11.8583L13.4916 10.2083L12.1249 9.16667L13.8416 9.125L14.4166 7.5L14.9916 9.125L16.7083 9.16667ZM14.8083 13.2917C15.4999 13.225 16.2416 14.2083 15.7999 14.8333C15.5333 15.2083 15.2499 15.5583 14.8999 15.8917C11.6416 19.1667 6.3666 19.1667 3.1166 15.8917C-0.141732 12.6417 -0.141732 7.35833 3.1166 4.10833C3.44994 3.775 3.79993 3.475 4.17493 3.20833C4.79993 2.76667 5.78327 3.50833 5.7166 4.2C5.4916 6.58333 6.2916 9.05833 8.12494 10.8833C9.94994 12.7167 12.4166 13.5167 14.8083 13.2917ZM13.4416 14.975C11.0833 14.8417 8.74994 13.8667 6.9416 12.0833C5.13327 10.2583 4.1666 7.91667 4.03327 5.56667C1.6916 8.18333 1.78327 12.2 4.2916 14.7167C6.80827 17.225 10.8249 17.3167 13.4416 14.975Z" fill="white"/>
</svg>
