<svg width="22" height="18" viewBox="0 0 22 18" fill="none" xmlns="http://www.w3.org/2000/svg">
<path d="M16.5 10.33C17.29 10.33 18.13 10.41 19 10.57V12.07C18.38 11.91 17.54 11.83 16.5 11.83C14.6 11.83 13.11 12.16 12 12.82V11.13C13.17 10.6 14.67 10.33 16.5 10.33ZM12 8.46C13.29 7.93 14.79 7.67 16.5 7.67C17.29 7.67 18.13 7.74 19 7.9V9.4C18.38 9.24 17.54 9.16 16.5 9.16C14.6 9.16 13.11 9.5 12 10.15M16.5 6.5C14.6 6.5 13.11 6.82 12 7.5V5.84C13.23 5.28 14.73 5 16.5 5C17.29 5 18.13 5.08 19 5.23V6.78C18.26 6.59 17.41 6.5 16.5 6.5ZM20 14.5V3C18.96 2.67 17.79 2.5 16.5 2.5C14.45 2.5 12.62 3 11 4V15.5C12.62 14.5 14.45 14 16.5 14C17.69 14 18.86 14.16 20 14.5ZM16.5 0.5C18.85 0.5 20.69 1 22 2V16.56C22 16.68 21.95 16.8 21.84 16.91C21.73 17 21.61 17.08 21.5 17.08C21.39 17.08 21.31 17.06 21.25 17.03C19.97 16.34 18.38 16 16.5 16C14.45 16 12.62 16.5 11 17.5C9.66 16.5 7.83 16 5.5 16C3.84 16 2.25 16.36 0.75 17.07C0.72 17.08 0.68 17.08 0.63 17.1C0.59 17.11 0.55 17.12 0.5 17.12C0.39 17.12 0.27 17.08 0.16 17C0.05 16.89 0 16.78 0 16.65V2C1.34 1 3.18 0.5 5.5 0.5C7.83 0.5 9.66 1 11 2C12.34 1 14.17 0.5 16.5 0.5Z" fill="white"/>
</svg>
