<svg width="55" height="55" viewBox="0 0 55 55" fill="none" xmlns="http://www.w3.org/2000/svg">
<path d="M27.5 0.946289C12.7534 0.946289 0.833374 12.8663 0.833374 27.613C0.833374 42.3596 12.7534 54.2796 27.5 54.2796C34.5725 54.2796 41.3552 51.4701 46.3562 46.4691C51.3572 41.4682 54.1667 34.6854 54.1667 27.613C54.1667 12.8663 42.1667 0.946289 27.5 0.946289ZM13.5267 19.133L16.3534 16.3063L19.18 19.133L22.0067 16.3063L24.8334 19.133L22.0067 21.9596L24.8334 24.7863L22.0067 27.613L19.18 24.7863L16.3534 27.613L13.5267 24.7863L16.3534 21.9596L13.5267 19.133ZM13.8734 42.2796C16.0067 36.8396 21.2867 32.9463 27.5 32.9463C33.7134 32.9463 38.9934 36.8396 41.1267 42.2796H13.8734ZM41.4734 24.7863L38.6467 27.613L35.82 24.7863L32.9934 27.613L30.1667 24.7863L32.9934 21.9596L30.1667 19.133L32.9934 16.3063L35.82 19.133L38.6467 16.3063L41.4734 19.133L38.6467 21.9596L41.4734 24.7863Z" fill="#8C8C8C"/>
</svg>
